<?xml version="1.0" encoding="utf-8"?>
<svg viewBox="0 0 500 500" width="500" height="500" xmlns="http://www.w3.org/2000/svg">
  <g transform="matrix(4.194914, 0, 0, 4.194914, 6.139178, 6.413492)" style="">
    <svg viewBox="0 0 116.51845617554858 116.51845617554858" height="116.51845617554858" width="116.51845617554858" transform="matrix(1, 0, 0, 1, 0, 7.105427357601002e-15)" style="">
      <g>
        <svg/>
      </g>
      <g id="icon-0">
        <svg viewBox="0 0 116.51845617554858 116.51845617554858" height="116.51845617554858" width="116.51845617554858" transform="matrix(1, 0, 0, 1, -92.29887040828669, -3.7334312903283546)">
          <g>
            <path xmlns="http://www.w3.org/2000/svg" d="M34.956 116.518c-19.305 0-34.956-15.65-34.956-34.955v-46.607c0-19.305 15.65-34.956 34.956-34.956h46.607c19.305 0 34.956 15.65 34.955 34.956v46.607c0 19.305-15.65 34.956-34.955 34.955z" fill-rule="nonzero" stroke="none" stroke-width="1" stroke-linecap="butt" stroke-linejoin="miter" stroke-miterlimit="10" stroke-dasharray="" stroke-dashoffset="0" font-family="none" font-weight="none" font-size="none" text-anchor="none" style="mix-blend-mode: normal; fill: rgb(244, 12, 0);" data-fill-palette-color="accent"/>
          </g>
          <g transform="matrix(1,0,0,1,23.303691235109717,35.99710626600083)">
            <svg viewBox="0 0 69.91107370532914 44.524243643546924" height="44.524243643546924" width="69.91107370532914">
              <g>
                <svg xmlns="http://www.w3.org/2000/svg" version="1.1" x="0" y="0" viewBox="5.000955581665039 21.340999603271484 89.99958038330078 57.3180046081543" enable-background="new 0 0 100 100" height="44.524243643546924" width="69.91107370532914" class="icon-s-0" data-fill-palette-color="quaternary" id="s-0">
                  <path d="M80.942 21.341c2.947 0 5.336 2.388 5.336 5.335s-2.392 5.335-5.336 5.335c-2.942 0-5.336-2.388-5.336-5.335C75.606 23.728 77.997 21.341 80.942 21.341zM59.229 42.269h10.695l6.863-6.937c0.492-0.756 1.344-1.26 2.31-1.26h3.087c1.517 0 2.76 1.243 2.76 2.76v21.402c0 1.517-1.243 2.759-2.76 2.759h-3.087c-1.521 0-2.761-1.242-2.761-2.759V41.677l-4.685 4.731H59.229c-1.143 0-2.07-0.926-2.07-2.07S58.087 42.269 59.229 42.269zM40.771 42.269c1.142 0 2.07 0.926 2.07 2.07s-0.928 2.07-2.07 2.07H28.346l-4.682-4.731v16.558c0 1.517-1.242 2.759-2.761 2.759h-3.087c-1.519 0-2.761-1.242-2.761-2.759V36.832c0-1.517 1.242-2.76 2.761-2.76h3.087c0.965 0 1.815 0.504 2.308 1.26l6.862 6.937H40.771zM19.057 21.341c2.946 0 5.336 2.388 5.336 5.335s-2.39 5.335-5.336 5.335-5.336-2.388-5.336-5.335C13.721 23.728 16.111 21.341 19.057 21.341zM29.21 67.127h-3.96l5.182 10.537c0.167 0.344 0.027 0.758-0.314 0.925-0.099 0.049-0.202 0.07-0.305 0.07-0.255 0-0.5-0.141-0.62-0.385l-5.48-11.147H11.791l-5.48 11.147c-0.119 0.244-0.365 0.385-0.62 0.385-0.103 0-0.205-0.021-0.305-0.07-0.342-0.167-0.482-0.581-0.314-0.925l5.64-11.469-5.42-21.961c-0.274-1.11 0.404-2.231 1.513-2.507 1.112-0.271 2.232 0.405 2.507 1.515l4.873 19.743H29.21c1.144 0 2.07 0.927 2.07 2.072C31.28 66.2 30.355 67.127 29.21 67.127zM67.51 77.97H32.835V47.534h34.677V77.97H67.51zM94.614 78.589c-0.1 0.049-0.201 0.07-0.306 0.07-0.254 0-0.5-0.141-0.619-0.385l-5.481-11.147h-11.92l-5.481 11.147c-0.119 0.244-0.365 0.385-0.618 0.385-0.102 0-0.204-0.021-0.305-0.07-0.343-0.167-0.483-0.581-0.316-0.925l5.182-10.537H70.79c-1.144 0-2.071-0.927-2.071-2.069 0-1.146 0.928-2.072 2.071-2.072h15.029l4.874-19.743c0.271-1.11 1.396-1.786 2.507-1.515 1.11 0.274 1.788 1.397 1.513 2.507l-5.419 21.961 5.639 11.469C95.096 78.008 94.954 78.422 94.614 78.589zM50.171 50.293H35.595V75.21h14.576V50.293z" data-fill-palette-color="quaternary" fill="#ffffff"/>
                </svg>
              </g>
            </svg>
          </g>
        </svg>
      </g>
    </svg>
  </g>
</svg>