<?xml version="1.0" encoding="utf-8"?>
<svg viewBox="5.259 178.042 476.958 116.518" width="476.958" height="116.518" xmlns="http://www.w3.org/2000/svg">
  <path d="M 159.652 258.21 L 159.652 252.574 L 167.359 252.574 L 167.359 258.21 C 167.359 262.786 165.855 266.326 162.845 268.826 C 159.835 271.312 155.321 272.556 149.303 272.556 C 143.285 272.556 138.733 271.312 135.65 268.826 C 132.568 266.326 131.027 262.786 131.027 258.21 L 131.027 217.22 C 131.027 212.644 132.531 209.104 135.541 206.604 C 138.55 204.118 143.065 202.874 149.083 202.874 C 155.101 202.874 159.652 204.118 162.735 206.604 C 165.818 209.104 167.359 212.644 167.359 217.22 L 167.359 226.956 L 159.652 226.956 L 159.652 217.22 C 159.652 211.754 156.166 209.022 149.193 209.022 C 142.22 209.022 138.733 211.754 138.733 217.22 L 138.733 258.21 C 138.733 263.675 142.22 266.408 149.193 266.408 C 156.166 266.408 159.652 263.675 159.652 258.21 Z M 180.02 271.019 L 196.205 204.411 L 207.765 204.411 L 223.949 271.019 L 216.242 271.019 L 212.499 255.648 L 191.47 255.648 L 187.728 271.019 L 180.02 271.019 Z M 210.958 249.5 L 201.93 212.404 L 192.902 249.5 L 210.958 249.5 Z M 247.07 247.45 L 247.07 271.019 L 239.363 271.019 L 239.363 204.411 L 255.988 204.411 C 261.713 204.411 266.058 205.675 269.024 208.203 C 272.003 210.73 273.494 214.248 273.494 218.758 L 273.494 233.104 C 273.494 240.072 270.263 244.513 263.805 246.425 L 277.347 271.019 L 268.869 271.019 L 255.988 247.45 L 247.07 247.45 Z M 265.787 233.104 L 265.787 218.758 C 265.787 216.161 264.943 214.146 263.254 212.711 C 261.565 211.277 259.143 210.56 255.988 210.56 L 247.07 210.56 L 247.07 241.302 L 255.988 241.302 C 262.521 241.302 265.787 238.569 265.787 233.104 Z M 310.465 271.019 L 292.739 271.019 L 292.739 204.411 L 310.465 204.411 C 316.189 204.411 320.543 205.675 323.522 208.203 C 326.488 210.73 327.97 214.248 327.97 218.758 L 327.97 256.673 C 327.97 261.249 326.501 264.782 323.566 267.268 C 320.631 269.769 316.262 271.019 310.465 271.019 Z M 320.263 256.673 L 320.263 218.758 C 320.263 216.571 319.405 214.658 317.686 213.019 C 315.954 211.38 313.547 210.56 310.465 210.56 L 300.446 210.56 L 300.446 264.871 L 310.465 264.871 C 313.547 264.871 315.954 264.071 317.686 262.473 C 319.405 260.86 320.263 258.927 320.263 256.673 Z M 341.732 271.019 L 357.916 204.411 L 369.477 204.411 L 385.661 271.019 L 377.954 271.019 L 374.211 255.648 L 353.182 255.648 L 349.439 271.019 L 341.732 271.019 Z M 372.67 249.5 L 363.642 212.404 L 354.614 249.5 L 372.67 249.5 Z M 407.681 250.524 L 407.681 271.019 L 399.974 271.019 L 399.974 204.411 L 416.599 204.411 C 422.324 204.411 426.669 205.675 429.635 208.203 C 432.614 210.73 434.105 214.248 434.105 218.758 L 434.105 236.178 C 434.105 240.755 432.636 244.288 429.7 246.774 C 426.766 249.274 422.397 250.524 416.599 250.524 L 407.681 250.524 Z M 426.398 236.178 L 426.398 218.758 C 426.398 216.161 425.554 214.146 423.865 212.711 C 422.176 211.277 419.754 210.56 416.599 210.56 L 407.681 210.56 L 407.681 244.376 L 416.599 244.376 C 423.132 244.376 426.398 241.644 426.398 236.178 Z M 474.18 210.56 L 446.215 210.56 L 446.215 204.411 L 482.217 204.411 L 482.217 210.56 L 452.601 264.871 L 481.666 264.871 L 481.666 271.019 L 444.563 271.019 L 444.563 264.871 L 474.18 210.56 Z" opacity="1" class="undefined-text-0" data-fill-palette-color="primary" id="text-0" style="fill: rgb(255, 255, 255);"/>
  <path xmlns="http://www.w3.org/2000/svg" d="M34.956 116.518c-19.305 0-34.956-15.65-34.956-34.955v-46.607c0-19.305 15.65-34.956 34.956-34.956h46.607c19.305 0 34.956 15.65 34.955 34.956v46.607c0 19.305-15.65 34.956-34.955 34.955z" fill-rule="nonzero" stroke="none" stroke-width="1" stroke-linecap="butt" stroke-linejoin="miter" stroke-miterlimit="10" stroke-dasharray="" stroke-dashoffset="0" font-family="none" font-weight="none" font-size="none" text-anchor="none" style="mix-blend-mode: normal; fill: rgb(255, 255, 255);" data-fill-palette-color="accent" transform="matrix(1, 0, 0, 1, 5.259379, 178.042297)"/>
  <path d="M80.942 21.341c2.947 0 5.336 2.388 5.336 5.335s-2.392 5.335-5.336 5.335c-2.942 0-5.336-2.388-5.336-5.335C75.606 23.728 77.997 21.341 80.942 21.341zM59.229 42.269h10.695l6.863-6.937c0.492-0.756 1.344-1.26 2.31-1.26h3.087c1.517 0 2.76 1.243 2.76 2.76v21.402c0 1.517-1.243 2.759-2.76 2.759h-3.087c-1.521 0-2.761-1.242-2.761-2.759V41.677l-4.685 4.731H59.229c-1.143 0-2.07-0.926-2.07-2.07S58.087 42.269 59.229 42.269zM40.771 42.269c1.142 0 2.07 0.926 2.07 2.07s-0.928 2.07-2.07 2.07H28.346l-4.682-4.731v16.558c0 1.517-1.242 2.759-2.761 2.759h-3.087c-1.519 0-2.761-1.242-2.761-2.759V36.832c0-1.517 1.242-2.76 2.761-2.76h3.087c0.965 0 1.815 0.504 2.308 1.26l6.862 6.937H40.771zM19.057 21.341c2.946 0 5.336 2.388 5.336 5.335s-2.39 5.335-5.336 5.335-5.336-2.388-5.336-5.335C13.721 23.728 16.111 21.341 19.057 21.341zM29.21 67.127h-3.96l5.182 10.537c0.167 0.344 0.027 0.758-0.314 0.925-0.099 0.049-0.202 0.07-0.305 0.07-0.255 0-0.5-0.141-0.62-0.385l-5.48-11.147H11.791l-5.48 11.147c-0.119 0.244-0.365 0.385-0.62 0.385-0.103 0-0.205-0.021-0.305-0.07-0.342-0.167-0.482-0.581-0.314-0.925l5.64-11.469-5.42-21.961c-0.274-1.11 0.404-2.231 1.513-2.507 1.112-0.271 2.232 0.405 2.507 1.515l4.873 19.743H29.21c1.144 0 2.07 0.927 2.07 2.072C31.28 66.2 30.355 67.127 29.21 67.127zM67.51 77.97H32.835V47.534h34.677V77.97H67.51zM94.614 78.589c-0.1 0.049-0.201 0.07-0.306 0.07-0.254 0-0.5-0.141-0.619-0.385l-5.481-11.147h-11.92l-5.481 11.147c-0.119 0.244-0.365 0.385-0.618 0.385-0.102 0-0.204-0.021-0.305-0.07-0.343-0.167-0.483-0.581-0.316-0.925l5.182-10.537H70.79c-1.144 0-2.071-0.927-2.071-2.069 0-1.146 0.928-2.072 2.071-2.072h15.029l4.874-19.743c0.271-1.11 1.396-1.786 2.507-1.515 1.11 0.274 1.788 1.397 1.513 2.507l-5.419 21.961 5.639 11.469C95.096 78.008 94.954 78.422 94.614 78.589zM50.171 50.293H35.595V75.21h14.576V50.293z" data-fill-palette-color="quaternary" style="fill: rgb(199, 40, 40);" transform="matrix(0.776793, 0, 0, 0.776793, 24.678362, 197.461856)"/>
</svg>